<svg id="Layer_1" enable-background="new 0 0 256 256" height="512" viewBox="0 0 256 256" width="512" xmlns="http://www.w3.org/2000/svg"><g><path d="m118.92 180.79c-3.08-1.07-5.85-2.82-8.13-5.06-2.3-2.24-4.09-4.98-5.23-8.06-.02-.03-.03-.07-.04-.1-1.62-4.43-5.89-7.33-10.61-7.33h-27.75v-91.21c0-2.2 2.07-4.08 4.69-3.22 3.47 1.27 8.61 3.42 14.49 6.8 15.07 8.69 27.26 20.86 35.57 36 1.54 2.82 2.96 5.73 4.23 8.74-8.103 19.323-10.204 43.314-7.22 63.44z" fill="#f2e1d6"/><path d="m178.985 66.352c-3.374 1.307-7.938 3.321-13.037 6.256-1.532-1.414-3.246-2.732-5.11-3.953.761-.954 1.425-1.918 2.003-2.903 6.342-10.916 1.103-23.545-13.358-30.68-.204-7.081-2.121-13.561-5.174-18.725 1.853-.611 3.706-.964 5.517-1.103 15.425-1.135 28.366 13.862 23.342 29.769 3.589 3.696 5.752 8.377 6.309 13.304.312 2.647.151 5.357-.492 8.035z" fill="#f0c020"/><path d="m118.92 180.79c-3.08-1.07-5.85-2.82-8.13-5.06-2.12-22.51 1.22-47.32 11.12-67.12 1.54 2.82 2.96 5.73 4.23 8.74-8.103 19.323-10.204 43.314-7.22 63.44z" fill="#d6c0b4"/><path d="m110.07 13.24c-4.27 5.53-7.01 13.24-7.27 21.83-14.56 7.19-19.65 19.84-13.34 30.69.56.98 1.23 1.95 1.99 2.89-1.87 1.23-3.58 2.54-5.11 3.96-5.88-3.38-11.02-5.53-14.49-6.8-.95-2.49-1.43-5.11-1.45-7.74-.1-7.27 3.29-14.59 9.91-19.14-2.68-15.39 9.91-27.82 24-26.84 1.91.12 3.84.51 5.76 1.15z" fill="#f0c020"/><path d="m165.95 72.61c-17.37 9.97-31.51 25.06-39.81 44.74-1.27-3.01-2.69-5.92-4.23-8.74-8.31-15.14-20.5-27.31-35.57-36 1.53-1.42 3.24-2.73 5.11-3.96-.76-.94-1.43-1.91-1.99-2.89-6.31-10.85-1.22-23.5 13.34-30.69.26-8.59 3-16.3 7.27-21.83 9.877-12.776 25.661-11.382 34.24 3.11 3.05 5.16 4.97 11.64 5.17 18.72 14.47 7.14 19.7 19.77 13.36 30.68-.58.99-1.24 1.95-2 2.9 1.86 1.23 3.58 2.54 5.11 3.96z" fill="#13bf6d"/><path d="m110.07 13.24c-4.27 5.53-7.01 13.24-7.27 21.83-14.56 7.19-19.65 19.84-13.34 30.69.56.98 1.23 1.95 1.99 2.89-1.87 1.23-3.58 2.54-5.11 3.96-5.88-3.38-11.02-5.53-14.49-6.8-.95-2.49-1.43-5.11-1.45-7.74 2.04 0 3.85.24 11.79 3.94-3.22-12.46 4.18-23.69 15.45-30.25.69-7.29 3-14.12 6.67-19.67 1.91.12 3.84.51 5.76 1.15z" fill="#e8a61f"/><path d="m178.985 66.352c-3.374 1.307-7.938 3.321-13.037 6.256-1.532-1.414-3.246-2.732-5.11-3.953.761-.954 1.425-1.918 2.003-2.903 6.342-10.916 1.103-23.545-13.358-30.68-.204-7.081-2.121-13.561-5.174-18.725 1.853-.611 3.706-.964 5.517-1.103 2.614 4.96 4.263 10.584 4.82 16.518 11.489 6.693 18.613 17.952 15.468 30.24 1.949-.908 7.261-3.291 9.362-3.685.313 2.647.152 5.357-.491 8.035z" fill="#e8a61f"/><path d="m157.39 152.75c-7.87 0-14.98 4.95-17.69 12.32-3.264 8.884-14.125 12.217-21.74 6.88-2.4-1.65-4.35-4.05-5.39-6.95-2.68-7.33-9.77-12.25-17.66-12.25h-27.75v7.49h27.75c4.72 0 8.99 2.9 10.61 7.33.01.03.02.07.04.1 1.14 3.08 2.93 5.82 5.23 8.06 2.28 2.24 5.05 3.99 8.13 5.06 11.83 4.07 23.87-2.42 27.82-13.12 1.64-4.47 5.89-7.43 10.65-7.43h27.73v-7.49z" fill="#d6c0b4"/><path d="m192.29 167.4v84.1h-132.29v-84.1c0-3.99 3.24-7.16 7.16-7.16h27.75c4.72 0 8.99 2.9 10.61 7.33.01.03.02.07.04.1 1.14 3.08 2.93 5.82 5.23 8.06 2.28 2.24 5.05 3.99 8.13 5.06 11.83 4.07 23.87-2.42 27.82-13.12 1.64-4.47 5.89-7.43 10.65-7.43h27.74c3.96 0 7.16 3.21 7.16 7.16z" fill="#fc5d3d"/><path d="m185.12 69.04v91.2h-27.73c-4.76 0-9.01 2.96-10.65 7.43-3.95 10.7-15.99 17.19-27.82 13.12-2.98-20.13-.88-44.12 7.22-63.44 8.3-19.68 22.44-34.77 39.81-44.74 5.1-2.94 9.66-4.95 13.04-6.26.53-.2 1.02-.38 1.5-.56 2.26-.81 4.63.85 4.63 3.25z" fill="#f2e1d6"/><path d="m165.95 72.61c-17.37 9.97-31.51 25.06-39.81 44.74-1.27-3.01-2.69-5.92-4.23-8.74-8.31-15.14-20.5-27.31-35.57-36 1.53-1.42 3.24-2.73 5.11-3.96-.76-.94-1.43-1.91-1.99-2.89 14.34 8.77 26.27 18.15 36.68 35.2 8.79-14.33 21.05-26.23 36.07-34.85l.63-.36c-.58.99-1.24 1.95-2 2.9 1.86 1.23 3.58 2.54 5.11 3.96z" fill="#139c6d"/><ellipse cx="126.143" cy="218.694" fill="#f2e1d6" rx="37.34" ry="22.094"/><g fill="#f0c020"><path d="m48.966 111.414c-4.288-1.417-8.716-2.655-11.202-13.364-2.29 9.864-5.958 11.632-11.202 13.364 8.552 2.826 9.842 7.505 11.202 13.364 2.344-10.099 6.22-11.717 11.202-13.364z"/><path d="m210.882 26.776c-4.288-1.417-8.716-2.655-11.202-13.364-2.29 9.864-5.958 11.632-11.202 13.364 8.552 2.826 9.842 7.505 11.202 13.364 2.344-10.1 6.22-11.718 11.202-13.364z"/><path d="m229.437 61.368c-4.288-1.417-8.716-2.655-11.202-13.364-2.29 9.864-5.958 11.632-11.202 13.364 8.552 2.826 9.842 7.505 11.202 13.364 2.344-10.1 6.22-11.718 11.202-13.364z"/></g><path d="m171.473 100.53c.976-.977.976-2.56 0-3.535l-2.142-2.142c-.977-.977-2.559-.977-3.536 0-.976.977-.976 2.56 0 3.535l2.142 2.142c.977.977 2.56.977 3.536 0z"/><path d="m92.024 109.838c-.976-.977-2.56-.977-3.535 0-.977.977-.977 2.559 0 3.535l2.143 2.143c.976.977 2.56.977 3.535 0 .977-.977.977-2.559 0-3.535z"/><path d="m148.458 120.205-2.142 2.143c-.976.977-.976 2.56 0 3.535.977.977 2.559.977 3.536 0l2.142-2.143c.976-.977.976-2.56 0-3.535-.977-.976-2.559-.976-3.536 0z"/><path d="m85.64 132.702-2.143 2.143c-.977.977-.977 2.559 0 3.535.976.977 2.56.977 3.535 0l2.143-2.143c.977-.977.977-2.559 0-3.535-.975-.976-2.559-.976-3.535 0z"/><path d="m165.579 141.817c-.976-.977-2.56-.977-3.535 0-.977.977-.977 2.559 0 3.535l2.143 2.143c.976.977 2.56.977 3.535 0 .977-.977.977-2.559 0-3.535z"/><path d="m59.99 221.7c-1.37 0-2.49 1.119-2.49 2.5v27.3c0 1.38 1.12 2.5 2.49 2.5 1.38 0 2.51-1.12 2.51-2.5v-27.3c0-1.381-1.13-2.5-2.51-2.5z"/><path d="m192.29 254c1.38 0 2.5-1.12 2.5-2.5v-.01-84.091c0-4.459-3.047-8.219-7.17-9.322v-10.577c0-1.38-1.12-2.5-2.5-2.5-1.37 0-2.5 1.12-2.5 2.5v10.24h-25.23-.01c-5.653 0-10.97 3.556-12.98 9.069-3.594 9.722-14.122 14.611-23.207 12.05-7.223-54.243 19.468-95.903 60.147-110.72.635-.232 1.28.263 1.28.9v58.46c0 1.38 1.13 2.5 2.5 2.5 1.38 0 2.5-1.12 2.5-2.5v-58.459c-.009-3.162-2.492-5.749-5.6-5.941.589-6.87-1.544-13.536-6.063-18.743 4.774-18.595-12.152-35.45-30.531-30.918-9.366-13.953-25.583-15.345-36.229-3.062-5.98-1.574-12.16-.885-17.487 1.724-1.255.607-1.747 2.106-1.15 3.34.651 1.318 2.2 1.72 3.34 1.15 3.827-1.859 7.976-2.456 12.106-1.782-3.234 5.332-5.208 11.801-5.636 18.704-14.883 7.979-20.4 22.165-12.437 34.544-.666.493-1.3 1-1.914 1.514-4.787-2.635-9.036-4.478-12.168-5.68-2.713-8.443.464-17.814 7.87-22.899.8-.551 1.22-1.53 1.05-2.49-.504-2.86-.438-5.709.25-8.53.33-1.34-.49-2.7-1.83-3.03-1.33-.319-2.7.521-3.02 1.83-.712 2.906-.919 5.945-.55 9.03-7.77 6.079-11.288 16.07-9.066 25.655-2.441.881-3.892 3.178-3.892 5.574v89.051c-4.114 1.107-7.162 4.864-7.162 9.319v36.8c0 1.38 1.12 2.5 2.49 2.5 1.38 0 2.51-1.12 2.51-2.5v-36.801c0-2.555 2.083-4.641 4.646-4.658.005 0 .01.001.015.001h27.745c3.615 0 6.967 2.204 8.304 5.797 3.498 9.433 12.564 15.97 22.96 15.97 10.17-.01 19.39-6.43 22.92-15.979 1.27-3.461 4.6-5.79 8.3-5.79h27.73.01c2.57.01 4.66 2.1 4.66 4.659v84.101c-.001 1.38 1.119 2.5 2.499 2.5zm-81.818-82.478c-1.28-1.742-2.116-3.476-2.602-4.809-1.735-4.757-6.502-8.974-12.661-8.974h-25.547v-88.71c0-.649.575-1.121 1.33-.877 22.265 8.176 41.879 25.082 52.434 49.229-7.404 18.264-9.625 40.074-7.562 59.177-2.34-1.475-3.879-2.972-5.392-5.036zm60.313-127.261c-.277.877-.05 1.835.59 2.494 4.728 4.869 6.555 11.477 5.439 17.768-3.238 1.31-6.965 3.058-10.55 5.037-.494-.414-1.272-1.03-1.911-1.503 7.731-11.829 2.994-26.278-12.438-34.544-.349-5.72-1.81-11.124-3.904-15.523 14.474-2.541 27.493 11.326 22.774 26.271zm-66.877-6.948c.829-.409 1.364-1.242 1.392-2.166.468-15.645 9.708-28.147 20.843-28.147 6.178 0 12.017 3.872 16.016 10.62 2.973 5.027 4.642 11.087 4.827 17.524.027.925.563 1.76 1.393 2.17 13.614 6.717 19.084 19.02 10.506 29.783-.918 1.151-.645 2.843.585 3.649.718.47 1.494 1.022 2.165 1.528-13.296 8.247-24.886 19.916-32.992 34.33v-19.676l22.227-20.941c1.005-.946 1.052-2.528.105-3.534-.946-1.003-2.528-1.051-3.534-.104l-18.798 17.711v-21.248l12.284-11.924c.991-.962 1.014-2.545.053-3.535-.962-.99-2.544-1.014-3.535-.053l-8.801 8.543v-28.37c0-1.381-1.119-2.5-2.5-2.5s-2.5 1.119-2.5 2.5v28.371l-9.467-9.189c-.99-.962-2.573-.938-3.535.053-.961.99-.938 2.573.053 3.535l12.949 12.57v21.246l-19.145-18.041c-1.004-.946-2.586-.9-3.534.104s-.9 2.587.105 3.534l22.573 21.271v19.673c-8.22-14.636-19.567-25.966-33-34.328.692-.522 1.418-1.031 2.174-1.526 1.232-.807 1.507-2.506.577-3.661-8.622-10.688-3.037-23.082 10.514-29.772z"/><path d="m59.99 211.7c-1.37 0-2.49 1.119-2.49 2.5 0 1.38 1.12 2.5 2.49 2.5 1.38 0 2.51-1.12 2.51-2.5 0-1.381-1.13-2.5-2.51-2.5z"/><path d="m126.143 243.288c22.34 0 39.84-10.803 39.84-24.594s-17.5-24.594-39.84-24.594-39.84 10.803-39.84 24.594 17.499 24.594 39.84 24.594zm0-44.187c18.885 0 34.84 8.973 34.84 19.594s-15.955 19.594-34.84 19.594-34.84-8.973-34.84-19.594 15.954-19.594 34.84-19.594z"/><path d="m104.996 226.952h42.294c1.381 0 2.5-1.119 2.5-2.5s-1.119-2.5-2.5-2.5h-42.294c-1.381 0-2.5 1.119-2.5 2.5s1.119 2.5 2.5 2.5z"/><path d="m116.368 215.437h19.55c1.381 0 2.5-1.119 2.5-2.5s-1.119-2.5-2.5-2.5h-19.55c-1.381 0-2.5 1.119-2.5 2.5s1.119 2.5 2.5 2.5z"/><circle cx="185.12" cy="137.5" r="2.5"/><path d="m83.45 22.439c1.093.875 2.656.703 3.52-.359.87-1.07.71-2.641-.36-3.521-1.03-.83-2.68-.67-3.52.36v.01c-.881 1.092-.697 2.657.36 3.51z"/><path d="m25.724 113.953c7.348 2.428 8.178 6.009 9.435 11.43.638 2.746 4.571 2.752 5.21 0 2.089-9.002 5.17-10.02 9.436-11.429 2.443-.807 2.437-4.273 0-5.078-4.071-1.349-7.291-2.192-9.436-11.43-.636-2.744-4.571-2.752-5.209 0-2.09 9.003-5.171 10.021-9.436 11.43-2.442.806-2.437 4.272 0 5.077zm12.051-7.93c1.394 2.623 3.009 4.282 4.674 5.418-1.747 1.175-3.303 2.79-4.624 5.23-1.059-1.883-2.574-3.663-4.885-5.192 1.836-1.203 3.463-2.874 4.835-5.456z"/><path d="m202.285 40.744c2.089-9.002 5.17-10.02 9.436-11.429 2.443-.807 2.437-4.273 0-5.078-4.071-1.35-7.291-2.193-9.436-11.43-.636-2.744-4.571-2.752-5.209 0-2.09 9.003-5.171 10.021-9.436 11.43-2.443.807-2.437 4.273 0 5.078 7.348 2.428 8.178 6.009 9.435 11.43.638 2.745 4.571 2.751 5.21-.001zm-2.594-19.359c1.394 2.622 3.009 4.282 4.674 5.418-1.747 1.175-3.303 2.789-4.624 5.23-1.059-1.883-2.574-3.663-4.885-5.192 1.836-1.204 3.463-2.874 4.835-5.456z"/><path d="m206.195 63.906c7.348 2.428 8.178 6.009 9.435 11.43.638 2.746 4.571 2.752 5.21 0 2.089-9.002 5.17-10.02 9.436-11.429 2.443-.807 2.437-4.273 0-5.078-4.071-1.349-7.291-2.193-9.436-11.43-.636-2.744-4.571-2.752-5.209 0-2.09 9.003-5.171 10.021-9.436 11.43-2.443.806-2.437 4.272 0 5.077zm12.05-7.929c1.394 2.622 3.009 4.282 4.674 5.418-1.747 1.175-3.303 2.789-4.624 5.23-1.059-1.883-2.574-3.663-4.885-5.192 1.837-1.204 3.464-2.875 4.835-5.456z"/></g></svg>